<?xml version="1.0" encoding="UTF-8" standalone="no"?> <svg xmlns="http://www.w3.org/2000/svg" width="73.694" height="78.509" viewBox="0 0 73.694 78.509">
  <g id="Group_2791" data-name="Group 2791" transform="translate(-59.496 -204.41)">
    <path id="Path_631" data-name="Path 631" d="M89.146,218.707v.042" fill="#231f20"/>
    <path id="Path_632" data-name="Path 632" d="M94.168,252.638c-.209-.629-1.121-3.7-1.252-4.245-.064-.365-.121-.73-.157-1.1-.131-1.053-.279-2.111-.4-3.188-.027-.27-.053-.545-.078-.817s-.028-.519-.043-.787c-.043-.557-.039-1.138-.123-1.713-.082-.623-.168-1.262-.257-1.9-.043-.439-.085-.874-.126-1.314-.11-1.093-.217-2.183-.289-3.268a16.333,16.333,0,0,1,.017-3.183,6.253,6.253,0,0,1,1.022-2.836,17.6,17.6,0,0,1,4.546-3.824c.794-.566,1.588-1.092,2.316-1.663s1.438-1.113,2.068-1.7c.191-.178.586-.545,1.061-.991.456-.459.99-1,1.481-1.5l-.007.006c1-1.008,1.806-1.846,1.441-1.54-.409.384-.84.793-1.526,1.44l0,0a43.39,43.39,0,0,1-4.231,3.66c-1.606,1.255-3.492,2.357-5.35,3.713a9.365,9.365,0,0,0-2.439,2.55c-.038.064-.071.132-.107.2.03-.187.065-.379.113-.572.075-.308.151-.631.229-.95.107-.309.229-.608.336-.9.246-.574.479-1.1.649-1.428a20.66,20.66,0,0,1,1.478-2.413c.6-.892,1.3-1.834,1.885-2.892a7.826,7.826,0,0,0,.415-.8,5.391,5.391,0,0,0,.355-.832c.21-.574.39-1.129.555-1.666s.325-1.066.48-1.566.35-.953.5-1.392a10.688,10.688,0,0,0,.407-1.487c-.175.409-.372.881-.59,1.4s-.492,1.058-.682,1.667q-.319.906-.663,1.883c-.112.328-.241.64-.364.958a6.18,6.18,0,0,1-.429.929,27.475,27.475,0,0,1-2.191,3.318,22.275,22.275,0,0,0-1.746,2.7c-.175.34-.415.825-.672,1.411-.12.3-.262.617-.37.941-.086.332-.175.667-.26.988-.1.391-.162.761-.215,1.09-.286-1.054-.657-2.051-.988-3.021-.393-1.155-.731-2.3-1.2-3.358a21.315,21.315,0,0,1-1.188-2.938,6.876,6.876,0,0,1-.382-2c0-.2-.013-.4,0-.564s.04-.321.058-.438c.027-.232.028-.34-.017-.208a6.216,6.216,0,0,0,.064,3.24,12.705,12.705,0,0,0,.589,1.789c.112.3.256.6.388.91s.239.624.361.942c.456,1.283.836,2.68,1.305,4.078.216.7.453,1.4.6,2.118l.109.538c.034.178.029.357.047.532a10.561,10.561,0,0,1,.035,1.108c0,.752,0,1.505,0,2.25,0,.373-.009.747.012,1.118s.061.741.092,1.107c.05.737.147,1.452.242,2.146s.173,1.379.249,2.034c.034.332.092.654.1.973s.025.626.038.934c.024.622.047,1.223.069,1.793.035.586.014,1.149.1,1.666s.132,1.007.191,1.453c.04.411.168.9.285,1.463s.255,1.2.46,1.846c.049.183.107.373.162.563.037.191.077.387.115.578.044.23.09.455.136.679a.25.25,0,0,0-.022-.024,15.99,15.99,0,0,0-2.729-2.16c-.246-.165-.493-.328-.739-.495-.226-.181-.45-.362-.676-.546-.28-.227-.558-.457-.841-.688-.448-.442-.9-.886-1.384-1.307-.771-.634-1.614-1.075-2.343-1.589a4.99,4.99,0,0,1-.953-.835,2.234,2.234,0,0,1-.429-1.062,5.6,5.6,0,0,0-.319-1.242c-.188-.362-.368-.712-.539-1.047a18.731,18.731,0,0,0-1.317-2.1c.315.644.687,1.381,1.06,2.194.182.4.393.835.571,1.265.112.455.139.963.27,1.477.042.128.075.261.124.386l.223.357c.043.052.087.1.131.154-.294-.1-.612-.227-.781-.288-.409-.134-.9-.357-1.469-.582a3.819,3.819,0,0,0-.4-.161c-.29-.147-.584-.3-.867-.441-.512-.237-1.019-.459-1.512-.681-.985-.44-1.924-.839-2.8-1.2-.555-.172-3.364-1.409-2.93-1.119.821.389,1.75.868,2.784,1.35s2.158,1.01,3.328,1.579c.295.14.592.285.891.429.292.16.588.318.886.479.6.327,1.2.633,1.812.99s1.227.71,1.849,1.05,1.251.661,1.857,1.02a19.909,19.909,0,0,1,2.126,1.643,13.44,13.44,0,0,0,1.963,1.8,14.281,14.281,0,0,1,2.427,1.861,9.3,9.3,0,0,1,1.537,2.59l-.018-.07c.007.025.013.047.018.07.189.807.385,1.672.593,2.455a16.358,16.358,0,0,1,.677,4.05c-.008.26-.016.493-.021.7-.033.2-.061.376-.084.518-.007.043-.012.077-.018.116a36.9,36.9,0,0,0-1.936,4.172c-.42.973-.91,1.949-1.188,2.807-.439-.375-.851-.683-1.078-.895a23.455,23.455,0,0,1-2.884-3.28l-.369-.493c-.116-.167-.22-.345-.333-.516-.205-.347-.467-.678-.626-1.012-.082-.166-.168-.327-.25-.486s-.128-.346-.194-.514c-.133-.344-.261-.672-.377-.977-.046-.076-.173-.284-.3-.484-.11-.313-.217-.618-.331-.916-.228-.715-.446-1.393-.647-2.023-.162-.368-.77-2.438-.772-2.067.132.626.282,1.341.445,2.124.215.772.387,1.63.664,2.507.135.44.271.889.413,1.349s.323.911.486,1.375a12.806,12.806,0,0,0,.553,1.4,14.356,14.356,0,0,0,.666,1.373c.258.438.5.885.772,1.307s.557.831.83,1.234a18.627,18.627,0,0,1,1.475,2.274,7.128,7.128,0,0,1,.552,2.231c.045.358.063.719.089,1.056s.047.661.041.932a28.646,28.646,0,0,1-.286,4.122c-.019.2-.039.4-.059.59-.024.159-.049.318-.074.466a1.707,1.707,0,0,1-.126.422,1.931,1.931,0,0,1-.159.379,8.126,8.126,0,0,1-.57.906c0,.008-.007.007-.007.008-.159.134-.258.233-.341.316h7.468c-.1-.2-.195-.425-.309-.675a33.507,33.507,0,0,1-1.272-4.114c-.227-.814-.448-1.648-.652-2.483-.084-.333-.16-.659-.233-.985a8.654,8.654,0,0,1-.015-1.179c.029-.434.058-.886.089-1.35.055-.465.109-.94.165-1.422.114-.959.215-1.938.4-2.836.03-.181.058-.349.087-.527.184-.481.363-.955.525-1.4q.764-1.523,1.614-3.2a55.759,55.759,0,0,1,3.225-5.252c.217-.284.436-.564.656-.867.341-.438.679-.892.993-1.386s.663-.973.958-1.481c.168-.283.341-.566.511-.848.314-.451.628-.9.938-1.353.427-.626.867-1.23,1.277-1.856a11.3,11.3,0,0,1,1.6-1.551A35.255,35.255,0,0,1,109.9,246.1c1.943-1.253,3.863-2.317,5.5-3.287a23.4,23.4,0,0,0,2.589-1.8c-1.574.917-3.675,1.977-5.978,3.225-1.144.634-2.35,1.3-3.525,2.08-.3.2-.6.383-.888.589l-.87.637-.1.078c.673-1.258,1.274-2.479,1.95-3.584.682-1.154,1.387-2.239,2-3.259a36.664,36.664,0,0,0,1.744-3.537c-.581.979-1.237,2.11-2,3.323-.779,1.2-1.687,2.463-2.534,3.878-.857,1.4-1.61,2.946-2.549,4.4-.05.052-.1.1-.148.149a21.726,21.726,0,0,0-2.545,3.47c-.42.692-.845,1.343-1.274,1.962-.208.3-.422.583-.627.879-.106.148-.21.293-.32.435-.768.993-1.523,1.926-2.216,2.776l-.959,1.252c-.127.169-.25.331-.373.491-.037-.067-.073-.133-.114-.206-.105-.184-.176-.42-.276-.646-.388-.908-.721-2.057-.943-2.621-.18-.54-.414-1.181-.659-1.879-.194-.785-.409-1.55-.612-2.273" fill="#9c4d4d"/>
    <path id="Path_633" data-name="Path 633" d="M119.484,221.55c-.324-.007-.688-.5-.863-.288-.126.145-.039.741-.1.96a3.388,3.388,0,0,0-.163.4c-.259-.044-.6.375-.847.514a1.725,1.725,0,0,1-.512.295c-.206.035-.437-.162-.592-.13-.266.058-.425.4-.733.466a2.3,2.3,0,0,1-.909-.044,5.09,5.09,0,0,0-1.662-.328c.008.044.01.1.02.154-.421.033-.7-.275-1.056-.1-.118.061-.212.24-.356.3s-.331,0-.446.052c-.258.117-.33.568-.528.664-.335.167-1.2-.462-1.47-.707a.887.887,0,0,1,.058-.092c-.614-.384-.334.582-.6.733-.18.1-.82-.052-1.048-.056a4.237,4.237,0,0,1-1.122-.119c-.362-.109-.563-.685-.824-.668.045.289-.077.477-.367.462-.377-.027-.24-.3-.4-.471-.3-.322-.588-.058-.962-.158a1.281,1.281,0,0,0-.043.276c.326.148.686.365.527.79-.188.511-.809.323-1.223.306-.436-.016-1.153.288-1.331-.249-.392.38-.62.1-1.046-.044.018-.055,0-.14.03-.205a.872.872,0,0,0-.581-.161c.022.1-.032.229-.013.327-.262-.052-.354.148-.586.174-.3.031-.6-.16-.917-.117-.2.646-.447.631-1.065.748-.442.086-.717.5-1.129.594-.427.1-.621-.164-.955-.365-.463-.277-.37.243-.9.146a.391.391,0,0,0-.5-.367c-.153.667.086.914-.673.922-.6.008-.559.336-1,.557-.59.287-1.16-.121-1.64-.362a1.357,1.357,0,0,0-1.26.108c-.042.021-.235.061-.279.078-.081.029-.145.131-.283.17a1.1,1.1,0,0,1-.884-.209c-.424.591-2.395.218-2.291-.672-.57-.031-6.653-.079-7.191-.215-.175.347-.845-.289-.943-.545A2.2,2.2,0,0,1,76.541,225a3.6,3.6,0,0,1-.377-.223c-.206-.145-.39-.249-.362-.536-.929-.3-5.4-.439-4.109-1.3.222-.148-2.207-.965-2.282-1.2-.105-.328.5-.963,1.651-1.1.4-.049.172-.25.026-.61-.1-.254,1.377-.442,1.538-.726.138-.237.42-.241.53-.55.1-.293,1.092-.6,1.184-.888a5.637,5.637,0,0,1,.516-1,1.043,1.043,0,0,1,.364-.41c.086-.052.3-.024.363-.091.285-.3.029-.944.136-1.314.082-.29.386-.412.5-.682.115-.288,2.807-.57,2.963-.864a6.829,6.829,0,0,0,.356-.756c.111-.28.36-.464.454-.745.195-.6,2.706-1.366,3.1-1.912a.364.364,0,0,1-.356.2c-.157-.777.551-.721.961-.9s.19-.525.449-.747c.369-.317.618.173.86-.454a3.229,3.229,0,0,0,.214-1.011c.349-.043.7.106.912-.3.164-.317-.063-.3-.049-.558s.135-.22.23-.439c.157-.364-.063-.691.355-.861a4.788,4.788,0,0,1,1.067-.156,1.609,1.609,0,0,0,.092.21c.276-.355.581-.176.92-.042a.72.72,0,0,0,.141.352c.41-.08,1.045-.718,1.376-.86a1.631,1.631,0,0,1,1.121-.018c.208.046.3.169.489.231.315.1.6-.061.842.251.314.412-.115,1.1.274,1.456.331.3,1.083-.152,1.079.557.773.072,1.205-.179,1.446.656.156.529.04.9.579,1.236a1.954,1.954,0,0,0,.91.213c.123-.237.812-.435,1.069-.527a3.567,3.567,0,0,1,1.742.018c.284.083.423.31.687.4.351.112.6-.084.738.39.075.245-.044.489.035.732.083.26.325.491.423.764.48-.1.606.54,1.153.342,0,.012-.018-.072-.018-.076.294-.155.387-.551.591-.793a1.012,1.012,0,0,1,.792-.383c.147-.029.344-.16.491-.139.246.039.3.306.5.4s.349-.034.544.006c.327.069.427.331.644.546a1.822,1.822,0,0,1,.58.916.545.545,0,0,0,.992.169c.113-.121.038-.282.188-.388a1.239,1.239,0,0,1,.769-.017c.174.064.225.216.368.287s.362.021.483.094c.2.117.135.341.287.473.181.149.283.008.471.084.506.2.436.646.087.977a1.3,1.3,0,0,0,.875.216c0,.229.079.457.338.42.041.574-.535.948.21,1.449.535.354.709.145.815-.355a.665.665,0,0,1,.281,0c.019.614.895.019,1.114-.03.578-.13.881.861,1.371.713-.008.281.318.56.552.68.186.094.433.067.612.193.212.146.084.142.219.339.345.507,1.048.259,1.472.716l-.052-.006c.2.156.584.349.7.468,0,0-.23-.031.361,1.173s.357-.323,1.193.789S120.412,221.566,119.484,221.55Z" fill="#1e9b50"/>
    <path id="Path_634" data-name="Path 634" d="M132.493,241.881c-.545-.081-.788-.211-.758-.637-.295.066-.49.364-.814.5-.5-.434.571-.7.084-1.16-.211-.2-.368-.167-.529-.4-.146-.213-.136-.363-.393-.586a1.121,1.121,0,0,0-1.4-.223c-.319.109-1.449.393-1.433-.185-.343.01-.795.27-1.106.086-.431-.255.072-.439.179-.68.147-.334-.05-.419-.213-.677a.957.957,0,0,1-.239-.73,1.483,1.483,0,0,0-.81-1.589,3.853,3.853,0,0,0-1.031-.362c-.445-.057-.757.216-1.173.173-.225-.026-.249-.151-.372-.175-.065-.014-.511-.061-.543-.074-.42-.15-.477-.235-.189-.659-.146-.069-.249-.169-.387-.238-.27-.135-.483-.051-.734-.134-.478-.158-.957-.49-.664-.894-.717-.419-1.329-.038-2.057-.138-.49-.067-.458-.3-.692-.568a3.928,3.928,0,0,0-.7-.505c-.22-.169-.357-.6-.709-.655-.482-.071-.4.211-.583.4-.434.439-1.108.362-1.824.559-1.013.279-1.891.615-1.574,1.48a2.532,2.532,0,0,1-1.251-.05c-.4-.054-1.354-.256-1.21.23-.977.21-.347.79-1.085,1-.545.157-1.253-.1-1.805-.035a.2.2,0,0,1,0,.061c-.32.054-.672.179-.963.22a3.16,3.16,0,0,0-.479.025,2.321,2.321,0,0,0-1.919.73,3.032,3.032,0,0,1,.216,1.349,1.313,1.313,0,0,0-1.664-.306c-.155.061-.85.472-.981.544-.391.222-.5.109-.763.424-.056,0-.125,0-.239,0-.1.761-.556.633-1.149,1.013a.7.7,0,0,0-.306.414c-.038.032-.075.061-.115.1a6.013,6.013,0,0,0-1.285,2.45c-2.8-.393-.885,1.79.752,1.972.78.086,1.469-.27,2.215.125.6.312,1.247.824,1.824,1.145.6.333.894.766,1.593.729.556-.031.963-.484,1.5-.466a.9.9,0,0,1,.175.337,3.565,3.565,0,0,1,.616.1c.194.288.242.608.852.672.547.055,1.147-.337,1.724-.328,1.438.018,2.028.726,2.366-.455a5.888,5.888,0,0,1,.588-.207,1.848,1.848,0,0,1,.325-.04c.363.616.588,1.573,1.828.9.5-.273.781-.844,1.281-1.053.748-.313.554,0,1.282.164.027.006.049.006.076.01a6.247,6.247,0,0,0,.725.381c.545.146,1.115-.363,1.8-.322.577.032,1.38.451,1.975.221.577-.223.526-.9,1.223-1.12-.065.549.427.325.839.477.456.168.49.42,1.113.475,1.026.09,1.483-.353,2.382-.489.366-.056,1.018.128,1.32-.037s.169-.512.528-.717c.3-.167.734-.118.991-.314.348-.263.041-.419.681-.57,1.409-.335,2.659-.293,3.779-1.1C132.677,242.352,132.321,242.375,132.493,241.881Z" fill="#1e9b50"/>
    <path id="Path_635" data-name="Path 635" d="M86.971,242.236a5.468,5.468,0,0,0-1.353-2.32,1.032,1.032,0,0,0-.84-.283.265.265,0,0,1-.038-.073c-.051-.241.256-.488.125-.735-.1-.191-.49-.13-.643-.34a1.222,1.222,0,0,1-.111-.737c-.424-.016-.742.077-.873-.345-.139-.443.263-.669-.111-1.117a3.7,3.7,0,0,0-.711-.477c-.383-.083-.775.471-.9-.021a.649.649,0,0,0-.557.066,1.841,1.841,0,0,0-1.7-.252c-.022.055,0,.11-.019.168a.481.481,0,0,0-.491.113c-.209-.01-.459-.01-.811-.023a2.057,2.057,0,0,1-.206-.025c-.021-.063-.043-.116-.061-.162-.16-.393.078-.43-.345-.74a2.707,2.707,0,0,0-.847-.3c-.533-.112-1.158-.093-1.032.627-.746-.066-1.788.609-2.506.209-.134.274-.209.048-.391.177-.112.079-.174.313-.267.36-.426.214-.4.214-.847-.129-.362-.275-.2-.525-.782-.34a1.364,1.364,0,0,0-.771.8.639.639,0,0,0-.078,1.272c-.15.114-.1.3-.007.51a7.268,7.268,0,0,1-1.778-.432c-1.082-.391-3.026-.234-3.578,1-.276.621.6.592.536,1.211-.047.418-.939.707-1.3.951a1.285,1.285,0,0,1-.21.1.278.278,0,0,0-.121.048,1.2,1.2,0,0,0-.416.215l-.008.014a1.213,1.213,0,0,0-1.049,1.246c-.254.1-.521.2-.792.3a4.217,4.217,0,0,0-.834.146.606.606,0,0,0-.432.4c-.051.029-.1.054-.155.085a.779.779,0,0,0,.082.121.607.607,0,0,1-.256.342c.285.313.75.215,1.065.561.209-.118.351-.315.569-.364h.2c.011,0,.021,0,.03,0,.068.471.586.431.833.111.087.114.3.186.369.25a3.173,3.173,0,0,1,0-.377c.552.035.627.057.834.2a.048.048,0,0,0,0,.015c.038.145-.129.242-.045.408.074.148.277.116.351.219a4.7,4.7,0,0,0,.381.589,3.533,3.533,0,0,0,.859.149c.177.008.373-.12.536-.1s.32.178.469.186a1.143,1.143,0,0,0,.379-.042,2.528,2.528,0,0,0,.679-.046,1.985,1.985,0,0,0,.6-.215c-.048.445.316.338.65.4.285.058.621.206.89.233a2.466,2.466,0,0,0,.567.421c.758.367,1.153.218,1.43-.089a3.174,3.174,0,0,0,1.506-.409c.363.936,1,.321,2.45.3.61-.008,1.242.363,1.819.311a.855.855,0,0,0,.706-.352,1.026,1.026,0,0,0,.475.252c.559.127.933-.379,1.421-.359.343.016.566.3.933.309.224,0,.6-.068.819-.08a4.051,4.051,0,0,0,1.887-.527c.366-.242,1.075-1.326,1.4-.447.252-.24.006-.425.07-.689s.256-.324.317-.531a.4.4,0,0,0,.019-.119,7.545,7.545,0,0,0,1.213.049C87.9,243.932,89.926,241.863,86.971,242.236Z" fill="#1e9b50"/>
  </g>
</svg>
